<?xml version="1.0" standalone="no"?>
<!DOCTYPE svg PUBLIC "-//W3C//DTD SVG 20010904//EN"
 "http://www.w3.org/TR/2001/REC-SVG-20010904/DTD/svg10.dtd">
<svg version="1.0" xmlns="http://www.w3.org/2000/svg"
 width="308.000000pt" height="292.000000pt" viewBox="0 0 308.000000 292.000000"
 preserveAspectRatio="xMidYMid meet">

<g transform="translate(0.000000,292.000000) scale(0.100000,-0.100000)"
fill="#000000" stroke="none">
<path d="M1330 2610 c-223 -49 -350 -123 -541 -315 -239 -241 -271 -302 -324
-609 -23 -136 -26 -179 -29 -515 -3 -340 -16 -635 -31 -715 -6 -27 -2 -38 15
-54 15 -14 21 -28 17 -43 -17 -65 69 -111 88 -46 20 65 145 177 198 177 12 0
51 -29 92 -70 77 -74 106 -90 161 -90 46 0 102 52 150 138 63 115 177 251 210
252 20 0 53 -46 92 -131 63 -136 120 -189 204 -189 54 0 80 18 149 100 73 86
97 88 149 13 76 -111 122 -141 188 -124 20 5 63 13 95 16 31 4 60 11 62 16 3
4 20 5 38 2 60 -9 61 -6 53 315 -3 158 -10 314 -15 347 -5 33 -17 132 -25 220
-9 88 -21 183 -26 210 -5 28 -12 75 -15 105 -15 121 -79 345 -141 493 -45 105
-112 198 -223 307 -111 109 -195 164 -298 195 -65 20 -190 18 -293 -5z m358
-105 c28 -15 52 -32 52 -36 0 -5 5 -9 11 -9 19 0 153 -125 211 -197 60 -75
123 -191 133 -247 4 -20 11 -36 15 -36 4 0 13 -27 20 -60 7 -33 16 -60 20 -60
5 0 13 -33 20 -72 6 -40 16 -80 20 -89 5 -10 14 -66 20 -125 6 -60 15 -118 20
-129 14 -34 33 -332 22 -351 -10 -18 1 -66 20 -91 5 -6 12 -127 15 -268 l6
-257 -22 7 c-12 3 -62 1 -112 -5 -82 -11 -92 -10 -110 6 -10 9 -19 21 -19 26
0 5 -5 14 -10 21 -6 7 -26 33 -46 59 -19 26 -46 51 -59 54 -14 3 -25 10 -25
15 0 15 -27 10 -66 -13 -40 -23 -124 -101 -124 -114 0 -19 -46 -54 -70 -54
-23 0 -90 48 -90 65 0 5 -42 102 -63 145 -7 13 -31 44 -54 68 -41 44 -43 45
-94 40 -29 -3 -57 -12 -63 -19 -6 -8 -24 -22 -39 -32 -15 -10 -31 -26 -34 -35
-4 -9 -15 -26 -26 -37 -32 -34 -83 -108 -114 -166 -33 -62 -66 -99 -88 -99 -8
0 -53 36 -99 80 -82 77 -87 80 -134 80 -53 0 -131 -35 -186 -82 -11 -10 -21
-17 -22 -15 -9 9 -5 720 4 729 6 6 8 54 5 127 -8 158 13 276 88 502 71 216 92
260 164 337 30 33 55 63 55 66 0 7 41 45 138 130 50 43 202 126 233 126 8 0
24 6 35 14 32 23 129 35 264 32 116 -2 129 -4 178 -31z"/>
<path d="M1304 2248 c-143 -96 -232 -236 -279 -441 -32 -142 -13 -222 74 -307
47 -46 69 -59 131 -79 106 -33 239 -28 322 12 155 75 230 205 230 395 0 234
-105 400 -272 430 -137 26 -152 25 -206 -10z m267 -99 c32 -22 89 -95 89 -115
0 -5 8 -22 17 -39 14 -24 17 -56 18 -161 0 -81 -4 -136 -11 -145 -6 -8 -14
-25 -17 -39 -4 -14 -19 -38 -34 -52 l-28 -27 -1 82 c-2 209 -115 316 -276 262
-96 -33 -172 -141 -172 -247 -1 -48 4 -64 32 -103 39 -56 40 -60 5 -38 -38 24
-66 53 -80 86 -24 52 -11 217 21 277 8 14 17 40 21 58 3 17 11 32 16 32 5 0 9
6 9 14 0 8 11 28 25 44 14 17 25 33 25 37 0 17 47 55 69 55 13 0 35 12 48 26
23 25 28 26 106 22 65 -4 89 -10 118 -29z m-162 -507 c13 -25 2 -74 -17 -70
-17 3 -35 55 -27 76 7 18 33 15 44 -6z"/>
<path d="M1063 1315 c-47 -33 -36 -144 20 -191 44 -38 126 -72 213 -90 82 -17
142 -10 239 28 65 25 99 59 137 135 34 69 33 107 -3 116 -34 9 -48 -2 -76 -57
-37 -75 -60 -94 -136 -118 -78 -23 -134 -20 -222 13 -82 31 -103 52 -107 106
-4 57 -31 82 -65 58z"/>
</g>
</svg>
