<?xml version="1.0" standalone="no"?>
<!DOCTYPE svg PUBLIC "-//W3C//DTD SVG 20010904//EN"
 "http://www.w3.org/TR/2001/REC-SVG-20010904/DTD/svg10.dtd">
<svg version="1.0" xmlns="http://www.w3.org/2000/svg"
 width="822.000000pt" height="822.000000pt" viewBox="0 0 822.000000 822.000000"
 preserveAspectRatio="xMidYMid meet">
<metadata>
Created by potrace 1.14, written by Peter Selinger 2001-2017
</metadata>
<g transform="translate(0.000000,822.000000) scale(0.100000,-0.100000)"
fill="#000000" stroke="none">
<path d="M3916 7223 c-1 -2 -35 -5 -74 -8 -85 -6 -204 -22 -252 -35 -19 -5
-48 -11 -65 -13 -42 -7 -182 -43 -233 -61 -23 -8 -44 -15 -47 -16 -14 -1 -36
-8 -120 -41 -28 -10 -54 -19 -59 -19 -19 0 -277 -136 -356 -187 -78 -51 -206
-146 -256 -189 -12 -11 -44 -38 -72 -61 -138 -118 -442 -421 -592 -592 -36
-41 -72 -82 -80 -90 -23 -25 -122 -159 -162 -221 -31 -49 -118 -220 -139 -275
-4 -11 -11 -29 -15 -40 -4 -11 -8 -23 -9 -27 -2 -5 -3 -9 -5 -10 -1 -2 -3 -10
-5 -18 -2 -8 -15 -58 -30 -110 -14 -52 -28 -106 -31 -120 -2 -14 -7 -36 -10
-50 -9 -40 -18 -85 -29 -145 -3 -16 -13 -68 -21 -115 -21 -112 -20 -108 -28
-163 -4 -27 -10 -59 -12 -70 -2 -12 -6 -49 -9 -82 -2 -33 -5 -60 -5 -60 -2 0
-8 -52 -14 -130 -10 -114 -17 -382 -20 -736 -2 -168 -6 -311 -10 -317 -3 -6
-3 -13 2 -16 4 -2 6 -24 5 -48 -1 -24 -5 -171 -8 -328 -3 -157 -7 -332 -9
-390 -2 -58 -7 -188 -11 -290 -4 -102 -8 -192 -8 -200 0 -8 -4 -21 -10 -27 -5
-7 -5 -13 -1 -13 10 0 10 -13 0 -140 -4 -41 -8 -106 -11 -145 -5 -73 -12 -129
-22 -180 -16 -83 -7 -120 37 -160 34 -30 43 -62 45 -147 0 -70 3 -80 31 -115
35 -43 91 -69 128 -59 31 8 76 51 76 73 0 18 53 114 84 153 27 33 162 168 204
203 50 42 156 104 197 116 66 18 115 -13 308 -195 177 -167 266 -218 388 -223
134 -5 271 110 409 344 70 117 171 276 187 293 7 7 13 17 13 20 0 4 10 18 23
32 12 14 42 52 67 85 56 74 216 235 252 254 65 34 133 -45 259 -299 45 -91 90
-177 101 -192 11 -16 17 -28 14 -28 -10 0 85 -132 128 -178 137 -147 355 -188
501 -95 43 27 121 104 225 223 126 143 163 170 232 170 24 0 44 -13 89 -57 32
-32 59 -61 59 -65 0 -31 199 -264 256 -301 97 -63 153 -71 289 -43 44 9 94 18
110 20 17 3 46 7 65 10 19 3 51 8 70 10 48 5 119 25 144 40 12 6 32 11 46 9
14 -2 51 -5 83 -7 53 -3 59 -1 82 26 14 16 25 42 26 56 0 15 3 36 5 47 8 32
10 387 3 427 -3 22 -2 38 3 38 5 0 7 4 4 9 -4 5 -8 112 -11 238 -5 223 -8 327
-20 623 -7 153 -9 182 -21 295 -9 86 -12 110 -14 110 -1 0 -3 18 -5 40 -9 94
-15 152 -19 175 -3 14 -7 57 -11 95 -8 89 -14 147 -21 210 -3 28 -8 66 -9 85
-2 19 -7 62 -11 95 -4 33 -7 72 -8 88 0 15 -3 27 -6 27 -3 0 -5 17 -6 38 -1
20 -4 51 -7 67 -3 17 -8 53 -12 80 -3 28 -8 57 -10 65 -2 8 -7 38 -11 65 -3
28 -7 59 -9 70 -1 11 -6 43 -9 70 -11 83 -16 120 -21 145 -3 14 -8 41 -11 60
-3 19 -10 55 -16 80 -5 25 -12 56 -14 70 -3 14 -14 61 -25 105 -12 44 -23 87
-25 95 -41 160 -171 567 -220 690 -15 36 -30 74 -34 85 -44 110 -169 343 -196
366 -8 6 -14 16 -14 21 0 7 -74 113 -90 128 -3 3 -21 25 -40 50 -88 115 -363
390 -501 501 -261 211 -482 316 -729 345 -47 6 -250 11 -254 7z m354 -257 c36
-4 83 -12 105 -17 79 -22 244 -116 270 -155 8 -13 23 -24 33 -24 17 0 106 -67
191 -145 89 -80 303 -300 355 -364 52 -64 166 -225 166 -235 0 -3 11 -22 25
-43 21 -30 104 -195 146 -288 8 -18 49 -168 49 -179 0 -3 8 -13 18 -23 16 -16
42 -83 47 -123 1 -8 10 -42 19 -75 9 -33 18 -64 20 -70 8 -33 18 -55 25 -55 9
0 31 -69 37 -113 2 -16 6 -36 8 -46 3 -9 8 -31 11 -48 3 -18 7 -48 10 -65 3
-18 11 -51 17 -73 5 -22 11 -44 12 -50 1 -5 4 -15 8 -20 9 -14 32 -143 43
-240 2 -22 7 -60 11 -84 3 -24 8 -64 10 -89 12 -119 40 -287 52 -307 7 -12 7
-9 16 -95 4 -36 9 -83 12 -105 23 -184 34 -576 21 -753 -5 -66 6 -112 43 -177
13 -23 23 -63 26 -104 12 -161 22 -408 29 -726 3 -132 8 -318 10 -412 4 -146
3 -173 -9 -173 -8 0 -17 4 -20 9 -5 8 -204 6 -281 -4 -22 -2 -56 -6 -75 -9
-214 -27 -265 -11 -314 96 -26 58 -194 271 -249 316 -22 18 -54 36 -70 39 -15
3 -38 18 -49 33 -16 23 -26 27 -52 23 -54 -8 -169 -73 -237 -133 -10 -8 -36
-31 -59 -50 -75 -64 -181 -179 -172 -187 13 -15 -44 -73 -102 -106 -58 -32
-101 -29 -170 13 -94 57 -131 97 -161 175 -16 39 -41 99 -57 133 -16 35 -30
69 -31 75 -1 6 -8 18 -14 25 -7 7 -13 19 -13 26 0 18 -46 103 -78 146 -72 95
-183 207 -221 223 -37 16 -115 13 -211 -7 -34 -8 -100 -38 -100 -46 0 -4 -29
-28 -65 -55 -65 -47 -125 -108 -125 -125 0 -5 -33 -49 -73 -97 -104 -125 -287
-392 -287 -419 0 -4 -12 -25 -27 -48 -16 -22 -35 -54 -43 -70 -21 -41 -107
-134 -140 -151 -24 -12 -31 -12 -58 3 -48 26 -119 86 -267 223 -178 167 -198
179 -290 186 -94 7 -195 -16 -310 -72 -87 -42 -144 -74 -155 -85 -21 -23 -130
-99 -133 -93 -17 32 -11 1633 7 1878 2 28 8 70 13 95 10 46 9 367 0 377 -3 3
-2 16 3 29 6 14 6 26 0 29 -5 3 -7 11 -5 18 2 7 6 71 9 142 3 72 8 141 11 155
2 14 7 44 9 65 6 56 16 116 23 145 3 14 7 30 9 35 1 6 5 26 8 45 10 51 72 286
97 361 11 35 22 71 24 79 3 13 79 248 89 275 2 6 4 13 5 17 6 26 92 262 102
280 7 13 11 23 10 23 -1 0 3 14 10 30 7 17 13 35 14 40 6 23 74 154 107 205
50 78 75 108 252 305 19 22 38 48 42 58 3 9 10 17 15 17 5 0 9 5 9 10 0 6 25
34 57 63 31 29 73 68 94 87 105 99 238 209 298 249 31 20 59 40 62 44 3 5 9 8
13 8 3 -1 16 5 29 13 112 71 339 181 407 196 30 7 78 25 107 41 44 23 112 45
208 64 11 2 68 7 125 11 58 4 106 7 107 9 6 4 444 -3 503 -9z"/>
<path d="M3660 6279 c-31 -3 -73 -14 -95 -24 -46 -22 -128 -75 -133 -87 -2 -4
-8 -8 -14 -8 -13 0 -99 -72 -184 -156 -77 -75 -234 -277 -234 -300 0 -8 -4
-14 -8 -14 -10 0 -100 -180 -140 -280 -29 -73 -89 -256 -96 -296 -2 -10 -10
-39 -17 -64 -6 -25 -13 -52 -14 -60 -6 -43 -16 -108 -20 -130 -8 -36 -8 -199
-1 -240 20 -108 67 -220 123 -290 58 -73 191 -199 252 -239 52 -34 144 -76
186 -85 6 -2 30 -8 55 -15 25 -7 56 -15 70 -17 14 -3 31 -7 39 -10 49 -17 315
-24 426 -10 106 13 218 47 320 98 55 28 102 53 105 57 3 3 28 21 55 40 71 50
188 170 236 243 75 117 138 271 154 379 4 24 8 46 11 50 15 25 23 324 11 454
-9 106 -43 270 -67 330 -4 11 -18 47 -31 80 -62 163 -176 319 -295 407 -132
97 -251 138 -499 173 -22 3 -62 9 -90 13 -27 4 -75 5 -105 1z m270 -263 c41
-3 75 -6 75 -6 0 -1 11 -3 25 -5 39 -4 122 -35 155 -58 91 -61 216 -225 251
-327 10 -30 21 -57 24 -60 7 -6 37 -78 44 -105 17 -62 24 -449 11 -610 -4 -44
-7 -87 -7 -95 0 -8 -6 -22 -13 -30 -7 -8 -22 -42 -34 -75 -13 -33 -32 -76 -44
-95 -23 -37 -116 -140 -127 -140 -3 0 -6 48 -6 106 1 58 -2 108 -6 110 -3 2
-3 17 2 33 4 16 6 32 4 34 -3 2 -6 20 -8 38 -18 171 -62 310 -129 409 -41 60
-117 135 -144 144 -13 4 -23 12 -23 17 0 5 -8 9 -18 9 -10 0 -23 5 -28 10 -27
27 -184 42 -274 27 -93 -15 -160 -40 -235 -87 -109 -68 -222 -197 -270 -310
-11 -25 -22 -47 -25 -50 -3 -3 -7 -12 -8 -20 -2 -8 -6 -22 -8 -30 -20 -83 -25
-115 -28 -185 -3 -92 14 -176 44 -217 11 -15 20 -30 20 -34 0 -3 14 -23 30
-44 17 -21 30 -43 30 -49 0 -6 4 -11 8 -11 10 0 35 -50 28 -57 -4 -4 -45 16
-56 27 -3 3 -18 14 -34 24 -82 52 -159 145 -190 226 -21 57 -25 92 -26 210 -1
216 33 403 98 539 12 24 28 68 37 100 24 87 36 110 56 116 10 4 18 9 17 13 -4
15 14 72 23 72 5 0 9 5 9 11 0 6 20 36 44 67 25 32 52 73 60 92 24 58 127 140
175 140 32 0 97 36 144 79 23 21 55 42 71 48 29 9 112 9 256 -1z m-189 -1405
c16 -16 30 -41 30 -55 1 -14 2 -32 2 -38 4 -66 -32 -125 -67 -112 -23 9 -59
92 -64 147 -7 83 43 113 99 58z"/>
<path d="M2879 3742 c-50 -16 -100 -81 -114 -148 -9 -44 -6 -132 6 -178 29
-109 89 -193 181 -253 43 -27 181 -101 196 -104 4 -1 17 -5 28 -10 12 -4 62
-19 110 -34 49 -14 103 -30 121 -36 17 -5 49 -12 70 -14 21 -2 38 -4 38 -5 0
-11 213 -15 275 -5 110 16 291 74 385 124 51 27 56 30 112 76 104 85 243 352
243 467 0 16 -12 41 -28 59 -22 25 -37 32 -78 36 -48 4 -53 2 -92 -34 -23 -22
-42 -42 -42 -46 0 -4 -25 -53 -56 -109 -61 -112 -95 -153 -162 -200 -43 -30
-162 -82 -162 -71 0 3 -6 1 -13 -5 -7 -6 -24 -13 -37 -16 -14 -2 -50 -10 -80
-16 -47 -9 -141 -13 -215 -9 -82 5 -296 73 -395 126 -115 61 -144 102 -160
229 -13 100 -41 156 -84 170 -18 5 -39 8 -47 6z"/>
</g>
</svg>
